<?xml version="1.0" encoding="utf-8"?>
<!-- Generator: Adobe Illustrator 24.0.1, SVG Export Plug-In . SVG Version: 6.00 Build 0)  -->
<svg version="1.1" id="Layer_1" xmlns="http://www.w3.org/2000/svg" xmlns:xlink="http://www.w3.org/1999/xlink" x="0px" y="0px"
	 viewBox="0 0 18 18" style="enable-background:new 0 0 18 18;" xml:space="preserve">
<path d="M2.6,9.5C2.5,9.4,2.5,9.2,2.5,9.1c0-0.1,0-0.2,0.1-0.3l0.7-0.7c0.2-0.2,0.5-0.2,0.7,0l0.1,0.1l2.8,2.9
	c0.1,0.1,0.2,0.1,0.3,0l6.7-6.9h0.1c0.2-0.2,0.5-0.2,0.7,0l0.7,0.7c0.2,0.2,0.2,0.5,0,0.7l-8,8.3C7.2,13.9,7.2,14,7,14
	s-0.2-0.1-0.3-0.1L2.8,9.6L2.6,9.5z"/>
<rect fill="none" width="18" height="18"/>
</svg>
