<svg width="16" height="16" viewBox="0 0 16 16" xmlns="http://www.w3.org/2000/svg">
<path fill-rule="evenodd" clip-rule="evenodd" d="M8 15C11.866 15 15 11.866 15 8C15 4.13401 11.866 1 8 1C4.13401 1 1 4.13401 1 8C1 11.866 4.13401 15 8 15ZM8 16C12.4183 16 16 12.4183 16 8C16 3.58172 12.4183 0 8 0C3.58172 0 0 3.58172 0 8C0 12.4183 3.58172 16 8 16ZM8 5C7.44772 5 7 5.44772 7 6V6.1C7 6.65228 6.55228 7.1 6 7.1C5.44772 7.1 5 6.65228 5 6.1V6C5 4.34315 6.34315 3 8 3C9.65685 3 11 4.34315 11 6V6.17157C11 6.96722 10.6839 7.73028 10.1213 8.29289L9 9.41421V9.5C9 10.0523 8.55228 10.5 8 10.5C7.44772 10.5 7 10.0523 7 9.5V9C7 8.73478 7.10536 8.48043 7.29289 8.29289L8.70711 6.87868C8.89464 6.69114 9 6.43679 9 6.17157V6C9 5.44772 8.55228 5 8 5ZM8 13C8.55229 13 9 12.5523 9 12C9 11.4477 8.55229 11 8 11C7.44772 11 7 11.4477 7 12C7 12.5523 7.44772 13 8 13Z" />
</svg>
